#!OML:ASF X:\für Bonn\!DataBase\2005_08_11_Bastian_Final\c3d\Bastian.ASF
:FULLY-SPECIFIED
:DEGREES
106
root -1.37759 12.3102 2.42611 167.57 -3.22375 -174.407
lowerback 35.3306 0.148731 2.43126
upperback 7.49519 -1.31146 1.35135
thorax -9.37637 -1.71409 0.831903
lowerneck -10.6841 -7.37103 -4.3359
upperneck -12.4171 -7.02009 13.7519
head -1.21956 -2.76712 4.69202
rclavicle -1.39149e-015 -3.57812e-015
rhumerus 76.8315 12.906 21.2536
rradius 40.0483
rwrist -72.3277
rhand -52.7643 -8.61887
rfingers 7.12502
rthumb -25.24 -36.9695
lclavicle -1.39149e-015 -3.57812e-015
lhumerus 76.024 -17.9697 -39.6684
lradius 32.134
lwrist 33.6738
lhand -48.5121 28.6743
lfingers 7.12502
lthumb -21.1604 57.5395
rfemur -42.5166 -4.8381 28.959
rtibia 109.349
rfoot -33.9483 -12.3018
rtoes -9.05084
lfemur -42.8501 4.74055 -12.8757
ltibia 111.185
lfoot -34.0004 -10.7881
ltoes -14.5004
107
root -1.38151 12.5433 2.43391 167.949 -3.23633 -174.424
lowerback 34.9524 0.120416 2.4179
upperback 7.49546 -1.31124 1.34306
thorax -9.35872 -1.6913 0.810685
lowerneck -10.5808 -7.33748 -4.29634
upperneck -12.4556 -6.97749 13.7545
head -1.25219 -2.75358 4.69152
rclavicle -2.18663e-015 -4.37326e-015
rhumerus 76.9519 13.0779 21.0529
rradius 40.0152
rwrist -72.2371
rhand -52.6177 -8.73023
rfingers 7.12502
rthumb -25.0995 -37.1006
lclavicle -2.18663e-015 -4.37326e-015
lhumerus 76.1022 -18.0083 -39.7234
lradius 32.206
lwrist 33.6453
lhand -48.5415 28.7532
lfingers 7.12502
lthumb -21.1886 57.6153
rfemur -41.6502 -4.51721 28.876
rtibia 107.038
rfoot -33.4752 -12.2003
rtoes -8.7135
lfemur -42.0197 4.35304 -13.0547
ltibia 108.788
lfoot -33.3746 -10.4068
ltoes -14.3356
108
root -1.38619 12.7755 2.4392 168.331 -3.24739 -174.464
lowerback 34.6343 0.102775 2.37537
upperback 7.41429 -1.30216 1.3458
thorax -9.33141 -1.66421 0.823591
lowerneck -10.5349 -7.32123 -4.28697
upperneck -12.4536 -6.9626 13.7422
head -1.2611 -2.75032 4.68798
rclavicle 2.14687e-014 -2.10712e-014
rhumerus 77.0898 13.2625 20.9496
rradius 40.0375
rwrist -72.2794
rhand -52.4846 -8.76439
rfingers 7.12502
rthumb -24.9719 -37.1525
lclavicle 2.14687e-014 -2.10712e-014
lhumerus 76.1666 -18.0652 -39.67
lradius 32.2641
lwrist 33.6433
lhand -48.5808 28.7638
lfingers 7.12502
lthumb -21.2263 57.6216
rfemur -40.743 -4.20277 28.7561
rtibia 104.684
rfoot -32.9977 -12.0914
rtoes -8.29589
lfemur -41.1503 4.00567 -13.259
ltibia 106.356
lfoot -32.7762 -9.98278
ltoes -14.3537
109
root -1.39054 13.0049 2.44327 168.689 -3.24314 -174.484
lowerback 34.3292 0.0848378 2.34998
upperback 7.33678 -1.29057 1.34551
thorax -9.30376 -1.63756 0.823718
lowerneck -10.5633 -7.30086 -4.22249
upperneck -12.3863 -6.9573 13.6817
head -1.24342 -2.75031 4.6571
rclavicle -3.18055e-014 1.43125e-014
rhumerus 77.2303 13.433 20.926
rradius 40.1258
rwrist -72.5274
rhand -52.4266 -8.71746
rfingers 7.12502
rthumb -24.9164 -37.1133
lclavicle -3.18055e-014 1.43125e-014
lhumerus 76.1768 -18.139 -39.3886
lradius 32.2694
lwrist 33.4337
lhand -48.5988 28.6064
lfingers 7.12502
lthumb -21.2436 57.4622
rfemur -39.7842 -3.90683 28.6733
rtibia 102.282
rfoot -32.5379 -12.0556
rtoes -8.05261
lfemur -40.2291 3.70043 -13.4076
ltibia 103.892
lfoot -32.1825 -9.65631
ltoes -14.0884
